<svg width="85" height="85" viewBox="0 0 85 85" fill="none" xmlns="http://www.w3.org/2000/svg">
<path d="M10.125 63.75C10.125 64.0261 10.3489 64.25 10.625 64.25H74.375C74.6511 64.25 74.875 64.0261 74.875 63.75V56.6667C74.875 56.3905 74.6511 56.1667 74.375 56.1667H10.625C10.3489 56.1667 10.125 56.3905 10.125 56.6667V63.75ZM10.125 46.0417C10.125 46.3178 10.3489 46.5417 10.625 46.5417H74.375C74.6511 46.5417 74.875 46.3178 74.875 46.0417V38.9583C74.875 38.6822 74.6511 38.4583 74.375 38.4583H10.625C10.3489 38.4583 10.125 38.6822 10.125 38.9583V46.0417ZM10.625 20.75C10.3489 20.75 10.125 20.9739 10.125 21.25V28.3333C10.125 28.6095 10.3489 28.8333 10.625 28.8333H74.375C74.6511 28.8333 74.875 28.6095 74.875 28.3333V21.25C74.875 20.9739 74.6511 20.75 74.375 20.75H10.625Z" fill="white" stroke="white" stroke-linejoin="round"/>
</svg>
